<svg xmlns="http://www.w3.org/2000/svg" width="243" height="254" fill="none"><path fill="url(#a)" d="M46.754 81.71V97h-2.508V86.528L39.582 97h-1.738l-4.686-10.472V97H30.65V81.71h2.706l5.368 11.99 5.346-11.99h2.684zm1.46 9.174c0-1.217.25-2.295.748-3.234.514-.939 1.203-1.665 2.068-2.178a5.539 5.539 0 0 1 2.904-.792c.954 0 1.782.19 2.486.572.72.367 1.291.829 1.716 1.386v-1.76h2.53V97h-2.53v-1.804c-.425.572-1.004 1.049-1.738 1.43-.733.381-1.569.572-2.508.572a5.386 5.386 0 0 1-2.86-.792c-.865-.543-1.554-1.29-2.068-2.244-.498-.968-.748-2.06-.748-3.278zm9.922.044c0-.836-.176-1.562-.528-2.178-.337-.616-.784-1.085-1.342-1.408a3.54 3.54 0 0 0-1.804-.484 3.54 3.54 0 0 0-1.804.484c-.557.308-1.012.77-1.364 1.386-.337.601-.506 1.32-.506 2.156 0 .836.17 1.57.506 2.2.352.63.807 1.115 1.364 1.452a3.618 3.618 0 0 0 1.804.484 3.54 3.54 0 0 0 1.804-.484c.558-.323 1.005-.792 1.342-1.408.352-.63.528-1.364.528-2.2zm7.333-4.29a3.88 3.88 0 0 1 1.452-1.43c.615-.352 1.341-.528 2.177-.528v2.596h-.638c-.982 0-1.73.25-2.243.748-.5.499-.748 1.364-.748 2.596V97H62.96V84.878h2.508v1.76zm9.73 4.312 5.59 6.05H77.4l-4.488-5.214V97h-2.508V80.72h2.508v9.46l4.4-5.302h3.476L75.2 90.95zm17.496-.308c0 .455-.029.865-.087 1.232h-9.263c.074.968.433 1.745 1.079 2.332.645.587 1.437.88 2.375.88 1.35 0 2.303-.565 2.86-1.694h2.706c-.366 1.115-1.033 2.031-2.001 2.75-.954.704-2.142 1.056-3.565 1.056-1.158 0-2.2-.257-3.124-.77a5.755 5.755 0 0 1-2.156-2.2c-.513-.953-.77-2.053-.77-3.3 0-1.247.25-2.34.749-3.278a5.413 5.413 0 0 1 2.133-2.2c.924-.513 1.98-.77 3.168-.77 1.144 0 2.164.25 3.058.748a5.267 5.267 0 0 1 2.09 2.112c.5.895.748 1.929.748 3.102zm-2.617-.792c-.015-.924-.345-1.665-.99-2.222-.646-.557-1.445-.836-2.398-.836-.866 0-1.606.279-2.222.836-.617.543-.983 1.283-1.1 2.222h6.71zm7.012-2.926v6.71c0 .455.102.785.308.99.22.19.586.286 1.1.286h1.54V97h-1.98c-1.13 0-1.995-.264-2.596-.792-.602-.528-.902-1.386-.902-2.574v-6.71h-1.43v-2.046h1.43v-3.014h2.53v3.014h2.948v2.046H97.09zM33.158 110.71V126H30.65v-15.29h2.508zm8.409 2.97c.953 0 1.804.198 2.552.594a4.211 4.211 0 0 1 1.782 1.76c.425.777.638 1.716.638 2.816V126h-2.486v-6.776c0-1.085-.272-1.914-.814-2.486-.543-.587-1.284-.88-2.222-.88-.939 0-1.687.293-2.244.88-.543.572-.814 1.401-.814 2.486V126H35.45v-12.122h2.508v1.386c.41-.499.931-.887 1.562-1.166a5.1 5.1 0 0 1 2.046-.418zm11.57 12.518c-.952 0-1.81-.169-2.573-.506-.748-.352-1.342-.821-1.782-1.408a3.562 3.562 0 0 1-.704-2.002h2.596c.044.513.286.946.726 1.298.455.337 1.02.506 1.694.506.704 0 1.247-.132 1.628-.396.396-.279.594-.631.594-1.056 0-.455-.22-.792-.66-1.012-.425-.22-1.107-.462-2.046-.726-.91-.249-1.65-.491-2.222-.726a3.992 3.992 0 0 1-1.496-1.078c-.41-.484-.616-1.122-.616-1.914 0-.645.19-1.232.572-1.76.381-.543.924-.968 1.628-1.276.719-.308 1.54-.462 2.464-.462 1.379 0 2.486.352 3.322 1.056.85.689 1.305 1.635 1.364 2.838h-2.508c-.044-.543-.264-.975-.66-1.298-.396-.323-.931-.484-1.606-.484-.66 0-1.166.125-1.518.374-.352.249-.528.579-.528.99 0 .323.117.594.352.814.235.22.52.396.858.528.337.117.836.271 1.496.462.88.235 1.599.477 2.156.726a3.91 3.91 0 0 1 1.474 1.056c.41.469.623 1.093.638 1.87 0 .689-.19 1.305-.572 1.848-.381.543-.924.968-1.628 1.276-.69.308-1.503.462-2.442.462zm7.629-13.926c-.455 0-.836-.154-1.144-.462a1.553 1.553 0 0 1-.462-1.144c0-.455.154-.836.462-1.144.308-.308.69-.462 1.144-.462.44 0 .814.154 1.122.462.308.308.462.689.462 1.144 0 .455-.154.836-.462 1.144a1.528 1.528 0 0 1-1.122.462zm1.232 1.606V126H59.49v-12.122h2.508zm7.177-.198c.938 0 1.767.191 2.486.572.733.367 1.305.829 1.716 1.386v-1.76h2.53v12.32c0 1.115-.235 2.105-.704 2.97a5.052 5.052 0 0 1-2.046 2.068c-.88.499-1.936.748-3.168.748-1.643 0-3.007-.389-4.092-1.166-1.086-.763-1.702-1.804-1.848-3.124h2.486c.19.631.594 1.137 1.21 1.518.63.396 1.378.594 2.244.594 1.012 0 1.826-.308 2.442-.924.63-.616.946-1.511.946-2.684v-2.024c-.426.572-1.005 1.056-1.738 1.452-.719.381-1.54.572-2.464.572a5.539 5.539 0 0 1-2.904-.792c-.866-.543-1.555-1.291-2.068-2.244-.499-.968-.748-2.061-.748-3.278s.249-2.295.748-3.234c.513-.939 1.202-1.665 2.068-2.178a5.539 5.539 0 0 1 2.904-.792zm4.202 6.248c0-.836-.176-1.562-.528-2.178-.338-.616-.785-1.085-1.342-1.408a3.536 3.536 0 0 0-1.804-.484c-.646 0-1.247.161-1.804.484-.558.308-1.012.77-1.364 1.386-.338.601-.506 1.32-.506 2.156 0 .836.168 1.569.506 2.2.352.631.806 1.115 1.364 1.452a3.616 3.616 0 0 0 1.804.484 3.54 3.54 0 0 0 1.804-.484c.557-.323 1.004-.792 1.342-1.408.352-.631.528-1.364.528-2.2zm11.094-6.248c.924 0 1.745.198 2.464.594.733.396 1.305.983 1.716 1.76.425.777.638 1.716.638 2.816V126h-2.486v-6.776c0-1.085-.272-1.914-.814-2.486-.543-.587-1.284-.88-2.222-.88-.939 0-1.687.293-2.244.88-.543.572-.814 1.401-.814 2.486V126H78.2v-16.28h2.508v5.566c.425-.513.96-.909 1.606-1.188a5.48 5.48 0 0 1 2.156-.418zm9.943 2.244v6.71c0 .455.103.785.308.99.22.191.587.286 1.1.286h1.54V126h-1.98c-1.13 0-1.995-.264-2.596-.792s-.902-1.386-.902-2.574v-6.71h-1.43v-2.046h1.43v-3.014h2.53v3.014h2.948v2.046h-2.948zm8.659 10.274c-.953 0-1.811-.169-2.574-.506-.748-.352-1.342-.821-1.782-1.408a3.563 3.563 0 0 1-.704-2.002h2.596c.044.513.286.946.726 1.298.455.337 1.02.506 1.694.506.704 0 1.247-.132 1.628-.396.396-.279.594-.631.594-1.056 0-.455-.22-.792-.66-1.012-.425-.22-1.107-.462-2.046-.726-.909-.249-1.65-.491-2.222-.726a3.994 3.994 0 0 1-1.496-1.078c-.41-.484-.616-1.122-.616-1.914 0-.645.191-1.232.572-1.76.382-.543.924-.968 1.628-1.276.719-.308 1.54-.462 2.464-.462 1.379 0 2.486.352 3.322 1.056.851.689 1.306 1.635 1.364 2.838h-2.508c-.044-.543-.264-.975-.66-1.298-.396-.323-.931-.484-1.606-.484-.66 0-1.166.125-1.518.374-.352.249-.528.579-.528.99 0 .323.118.594.352.814.235.22.521.396.858.528.338.117.836.271 1.496.462.88.235 1.599.477 2.156.726a3.905 3.905 0 0 1 1.474 1.056c.411.469.624 1.093.638 1.87 0 .689-.19 1.305-.572 1.848-.381.543-.924.968-1.628 1.276-.689.308-1.503.462-2.442.462z"/><rect width="11" height="81.03" x="132.707" y="134.97" fill="url(#b)" rx="4"/><rect width="11" height="45.743" x="132.707" y="170.257" fill="#FFC030" rx="4"/><rect width="12" height="62.733" x="155.477" y="153.267" fill="url(#c)" rx="4"/><rect width="12" height="35.287" x="155.488" y="180.713" fill="#FFC030" rx="4"/><rect width="12" height="87.564" x="179.477" y="128.436" fill="url(#d)" rx="4"/><rect width="12" height="48.356" x="179.258" y="167.644" fill="#FFC030" rx="4"/><rect width="11" height="132" x="203.247" y="84" fill="url(#e)" rx="4"/><rect width="11" height="74.495" x="203.247" y="141.505" fill="#FFC030" rx="4"/><path fill="#D5E4F9" d="M33.464 204.114H29.02v4.554h-2.332v-4.554h-4.444v-2.112h4.444v-4.554h2.332v4.554h4.444v2.112zm2.231-6.864v-2.288h4.576V211h-2.53v-13.75h-2.046zm9.727 5.368c-1.525-.763-2.287-1.965-2.287-3.608 0-.792.198-1.518.593-2.178.396-.66.99-1.181 1.782-1.562.793-.396 1.76-.594 2.904-.594 1.13 0 2.09.198 2.883.594.806.381 1.408.902 1.803 1.562.396.66.594 1.386.594 2.178 0 .821-.212 1.547-.638 2.178a4.114 4.114 0 0 1-1.65 1.43c.837.308 1.497.814 1.98 1.518.484.689.726 1.503.726 2.442 0 .953-.242 1.797-.726 2.53-.483.733-1.158 1.298-2.024 1.694-.865.396-1.848.594-2.948.594-1.1 0-2.082-.198-2.947-.594-.851-.396-1.518-.961-2.002-1.694-.485-.733-.727-1.577-.727-2.53 0-.953.242-1.775.727-2.464a4.082 4.082 0 0 1 1.957-1.496zm5.875-3.3c0-.821-.257-1.452-.77-1.892-.514-.44-1.218-.66-2.113-.66-.88 0-1.576.22-2.09.66-.513.44-.77 1.078-.77 1.914 0 .733.264 1.335.792 1.804.543.455 1.233.682 2.069.682.836 0 1.525-.235 2.068-.704.542-.469.814-1.071.814-1.804zm-2.883 4.4c-.968 0-1.76.242-2.376.726-.6.469-.901 1.151-.901 2.046 0 .836.293 1.518.88 2.046.586.513 1.386.77 2.397.77.998 0 1.782-.264 2.355-.792.586-.528.88-1.203.88-2.024 0-.88-.301-1.562-.903-2.046-.586-.484-1.364-.726-2.332-.726zm17.496-6.82L59.794 211h-2.53l6.182-13.838h-8.14v-2.134H65.91v1.87zm.75 1.936c0-1.071.308-1.907.924-2.508.631-.616 1.438-.924 2.42-.924.983 0 1.782.308 2.398.924.631.601.946 1.437.946 2.508s-.315 1.914-.946 2.53c-.616.616-1.415.924-2.398.924-.982 0-1.789-.308-2.42-.924-.616-.616-.924-1.459-.924-2.53zm13.42-3.146L71.302 211h-2.464l8.778-15.312h2.464zm-10.076 1.232c-.924 0-1.386.638-1.386 1.914 0 1.291.462 1.936 1.386 1.936.44 0 .778-.154 1.012-.462.25-.323.374-.814.374-1.474 0-1.276-.462-1.914-1.386-1.914zm5.61 10.912c0-1.071.308-1.907.924-2.508.631-.616 1.438-.924 2.42-.924.968 0 1.76.308 2.376.924.631.601.946 1.437.946 2.508s-.315 1.914-.946 2.53c-.616.616-1.408.924-2.376.924-.982 0-1.789-.308-2.42-.924-.616-.616-.924-1.459-.924-2.53zm3.322-1.914c-.924 0-1.386.638-1.386 1.914 0 1.276.462 1.914 1.386 1.914.924 0 1.386-.638 1.386-1.914 0-1.276-.462-1.914-1.386-1.914z"/><path fill="#fff" d="M56.893 41.267c-.853-2.894-3.266-5.307-6.16-6.16-2.2-.64-3.72-.587-4.773.2-1.267.946-1.413 2.653-1.413 3.866v3.32c0 3.28 1.493 4.947 4.426 4.947H52.8c1.2 0 2.92-.147 3.867-1.413.813-1.04.88-2.56.226-4.76z"/><path fill="#fff" d="M53.213 49.813a1.824 1.824 0 0 0-1.373-.626h-4.773a4.256 4.256 0 0 1-4.254-4.254V40.16c0-.52-.226-1.027-.626-1.373a1.808 1.808 0 0 0-1.427-.44c-3.133.4-6.013 2.12-7.893 4.706-1.894 2.6-2.587 5.774-1.987 8.947.867 4.587 4.533 8.253 9.133 9.12.734.147 1.467.213 2.2.213 2.414 0 4.747-.746 6.734-2.2 2.586-1.88 4.306-4.76 4.706-7.893a1.792 1.792 0 0 0-.44-1.427z"/><defs><linearGradient id="a" x1="134.226" x2="49.86" y1="72.383" y2="163.203" gradientUnits="userSpaceOnUse"><stop stop-color="#fff"/><stop offset="1" stop-color="#C8D3E3"/></linearGradient><linearGradient id="b" x1="143.424" x2="124.987" y1="131.315" y2="132.762" gradientUnits="userSpaceOnUse"><stop stop-color="#fff"/><stop offset="1" stop-color="#fff"/></linearGradient><linearGradient id="c" x1="167.169" x2="147.176" y1="150.437" y2="152.648" gradientUnits="userSpaceOnUse"><stop stop-color="#fff"/><stop offset="1" stop-color="#fff"/></linearGradient><linearGradient id="d" x1="191.169" x2="171.058" y1="124.485" y2="126.079" gradientUnits="userSpaceOnUse"><stop stop-color="#fff"/><stop offset="1" stop-color="#fff"/></linearGradient><linearGradient id="e" x1="213.965" x2="195.457" y1="78.045" y2="78.937" gradientUnits="userSpaceOnUse"><stop stop-color="#fff"/><stop offset="1" stop-color="#fff"/></linearGradient></defs></svg>