<svg xmlns="http://www.w3.org/2000/svg" width="387" height="144" fill="none"><rect width="387" height="144" fill="url(#a)" rx="20"/><path fill="#212A40" d="M284.616 54.228c0 .467-.117.905-.35 1.316-.224.41-.56.756-1.008 1.036-.439.28-.961.448-1.568.504v1.134h-.91v-1.134c-.877-.084-1.587-.36-2.128-.826-.541-.467-.812-1.083-.812-1.848h1.708c.028.364.145.667.35.91.205.233.499.383.882.448v-3.08a12.156 12.156 0 0 1-1.526-.476 2.555 2.555 0 0 1-1.008-.784c-.271-.355-.406-.84-.406-1.456 0-.775.271-1.414.812-1.918.541-.513 1.251-.812 2.128-.896v-1.134h.91v1.134c.821.075 1.479.336 1.974.784.504.439.789 1.045.854 1.82h-1.708a1.34 1.34 0 0 0-.336-.77 1.47 1.47 0 0 0-.784-.476v3.024c.625.15 1.134.308 1.526.476.392.159.723.415.994.77.271.345.406.826.406 1.442zm-5.152-4.34c0 .383.112.681.336.896.233.215.56.387.98.518v-2.828c-.401.047-.723.191-.966.434-.233.243-.35.57-.35.98zm2.226 5.88c.411-.065.733-.229.966-.49.233-.27.35-.593.35-.966s-.117-.663-.35-.868c-.224-.215-.546-.387-.966-.518v2.842zm5.045-7.518v-1.456h2.912V57h-1.61v-8.75h-1.302zm7.065 6.832-1.694 3.864h-1.036l.994-3.864h1.736zm.989-.21v-1.204l4.704-6.748h1.932v6.566h1.302v1.386h-1.302V57h-1.568v-2.128h-5.068zm5.138-6.328-3.304 4.942h3.304v-4.942zm4.122 3.22c0-1.615.271-2.875.812-3.78.551-.915 1.493-1.372 2.828-1.372 1.335 0 2.273.457 2.814 1.372.551.905.826 2.165.826 3.78 0 1.633-.275 2.912-.826 3.836-.541.915-1.479 1.372-2.814 1.372s-2.277-.457-2.828-1.372c-.541-.924-.812-2.203-.812-3.836zm5.712 0c0-.756-.051-1.395-.154-1.918-.093-.523-.289-.947-.588-1.274-.299-.336-.742-.504-1.33-.504-.588 0-1.031.168-1.33.504-.299.327-.499.751-.602 1.274-.093.523-.14 1.162-.14 1.918 0 .784.047 1.442.14 1.974.093.532.289.961.588 1.288.308.327.756.49 1.344.49.588 0 1.031-.163 1.33-.49.308-.327.509-.756.602-1.288.093-.532.14-1.19.14-1.974zm3.257 0c0-1.615.27-2.875.812-3.78.55-.915 1.493-1.372 2.828-1.372 1.334 0 2.272.457 2.814 1.372.55.905.826 2.165.826 3.78 0 1.633-.276 2.912-.826 3.836-.542.915-1.48 1.372-2.814 1.372-1.335 0-2.278-.457-2.828-1.372-.542-.924-.812-2.203-.812-3.836zm5.712 0c0-.756-.052-1.395-.154-1.918-.094-.523-.29-.947-.588-1.274-.299-.336-.742-.504-1.33-.504-.588 0-1.032.168-1.33.504-.299.327-.5.751-.602 1.274-.094.523-.14 1.162-.14 1.918 0 .784.046 1.442.14 1.974.093.532.289.961.588 1.288.308.327.756.49 1.344.49.588 0 1.031-.163 1.33-.49.308-.327.508-.756.602-1.288.093-.532.14-1.19.14-1.974zm8.646-7.98-3.808 15.666H322l3.794-15.666h1.582zm11.35 5.376c.607 0 1.148.126 1.624.378a2.68 2.68 0 0 1 1.134 1.12c.28.495.42 1.092.42 1.792V57h-1.582v-4.312c0-.69-.173-1.218-.518-1.582-.345-.373-.817-.56-1.414-.56s-1.073.187-1.428.56c-.345.364-.518.891-.518 1.582V57h-1.582v-4.312c0-.69-.173-1.218-.518-1.582-.345-.373-.817-.56-1.414-.56s-1.073.187-1.428.56c-.345.364-.518.891-.518 1.582V57h-1.596v-7.714h1.596v.882c.261-.317.593-.565.994-.742a3.152 3.152 0 0 1 1.288-.266c.616 0 1.167.13 1.652.392.485.261.859.64 1.12 1.134a2.544 2.544 0 0 1 1.092-1.106 3.19 3.19 0 0 1 1.596-.42zm8.555 7.966a3.995 3.995 0 0 1-1.974-.49 3.633 3.633 0 0 1-1.386-1.4c-.336-.607-.504-1.307-.504-2.1 0-.784.172-1.48.518-2.086a3.572 3.572 0 0 1 1.414-1.4c.597-.327 1.264-.49 2.002-.49.737 0 1.404.163 2.002.49a3.584 3.584 0 0 1 1.414 1.4c.345.607.518 1.302.518 2.086 0 .784-.178 1.48-.532 2.086a3.722 3.722 0 0 1-1.456 1.414 4.185 4.185 0 0 1-2.016.49zm0-1.386c.41 0 .793-.098 1.148-.294.364-.196.658-.49.882-.882.224-.392.336-.868.336-1.428 0-.56-.108-1.031-.322-1.414a2.17 2.17 0 0 0-.854-.882 2.338 2.338 0 0 0-1.148-.294c-.411 0-.794.098-1.148.294-.346.196-.621.49-.826.882-.206.383-.308.854-.308 1.414 0 .83.21 1.475.63 1.932.429.448.966.672 1.61.672zm-61.665 56.488c0 .467-.117.905-.35 1.316-.224.411-.56.756-1.008 1.036-.439.28-.961.448-1.568.504v1.134h-.91v-1.134c-.877-.084-1.587-.359-2.128-.826-.541-.467-.812-1.083-.812-1.848h1.708c.028.364.145.667.35.91.205.233.499.383.882.448v-3.08a12.156 12.156 0 0 1-1.526-.476 2.552 2.552 0 0 1-1.008-.784c-.271-.355-.406-.84-.406-1.456 0-.775.271-1.414.812-1.918.541-.513 1.251-.812 2.128-.896v-1.134h.91v1.134c.821.075 1.479.336 1.974.784.504.439.789 1.045.854 1.82h-1.708a1.34 1.34 0 0 0-.336-.77 1.471 1.471 0 0 0-.784-.476v3.024c.625.149 1.134.308 1.526.476.392.159.723.415.994.77.271.345.406.826.406 1.442zm-5.152-4.34c0 .383.112.681.336.896.233.215.56.387.98.518v-2.828c-.401.047-.723.191-.966.434-.233.243-.35.569-.35.98zm2.226 5.88c.411-.065.733-.229.966-.49.233-.271.35-.593.35-.966s-.117-.663-.35-.868c-.224-.215-.546-.387-.966-.518v2.842zm6.137-.938a55.047 55.047 0 0 0 2.114-1.904 8.644 8.644 0 0 0 1.302-1.568c.346-.541.518-1.083.518-1.624 0-.56-.135-.999-.406-1.316-.261-.317-.676-.476-1.246-.476-.55 0-.98.177-1.288.532-.298.345-.457.812-.476 1.4h-1.54c.028-1.064.346-1.876.952-2.436.616-.569 1.396-.854 2.338-.854 1.018 0 1.811.28 2.38.84.579.56.868 1.307.868 2.24 0 .672-.172 1.321-.518 1.946a7.732 7.732 0 0 1-1.218 1.666 31.207 31.207 0 0 1-1.792 1.694l-.63.56h4.438v1.33h-6.804v-1.162l1.008-.868zm9.159.252-1.694 3.864h-1.036l.994-3.864h1.736zm3.172-.854c.093.467.294.821.602 1.064.308.243.723.364 1.246.364.663 0 1.148-.261 1.456-.784.308-.523.462-1.414.462-2.674-.224.317-.541.565-.952.742-.401.168-.84.252-1.316.252a3.696 3.696 0 0 1-1.652-.364 2.853 2.853 0 0 1-1.176-1.106c-.28-.495-.42-1.092-.42-1.792 0-1.027.299-1.843.896-2.45.607-.616 1.437-.924 2.492-.924 1.269 0 2.17.425 2.702 1.274.541.84.812 2.133.812 3.878 0 1.204-.103 2.189-.308 2.954-.196.765-.541 1.344-1.036 1.736-.495.392-1.181.588-2.058.588-.999 0-1.769-.261-2.31-.784-.541-.523-.845-1.181-.91-1.974h1.47zm1.778-2.38c.56 0 .999-.173 1.316-.518.327-.355.49-.821.49-1.4 0-.644-.173-1.143-.518-1.498-.336-.364-.798-.546-1.386-.546-.588 0-1.055.187-1.4.56-.336.364-.504.845-.504 1.442 0 .569.163 1.041.49 1.414.336.364.84.546 1.512.546zm5.121-.084c0-1.615.27-2.875.812-3.78.55-.915 1.493-1.372 2.828-1.372 1.334 0 2.272.457 2.814 1.372.55.905.826 2.165.826 3.78 0 1.633-.276 2.912-.826 3.836-.542.915-1.48 1.372-2.814 1.372-1.335 0-2.278-.457-2.828-1.372-.542-.924-.812-2.203-.812-3.836zm5.712 0c0-.756-.052-1.395-.154-1.918-.094-.523-.29-.947-.588-1.274-.299-.336-.742-.504-1.33-.504-.588 0-1.032.168-1.33.504-.299.327-.5.751-.602 1.274-.094.523-.14 1.162-.14 1.918 0 .784.046 1.442.14 1.974.093.532.289.961.588 1.288.308.327.756.49 1.344.49.588 0 1.031-.163 1.33-.49.308-.327.508-.756.602-1.288.093-.532.14-1.19.14-1.974zm13.715-4.494V115h-1.596v-6.664L322.92 115h-1.106l-2.982-6.664V115h-1.596v-9.73h1.722l3.416 7.63 3.402-7.63h1.708z"/><path fill="#485E79" d="M277.84 36v-8.64h.81l3.396 7.266 3.378-7.266h.822v8.634h-.84v-6.666L282.328 36h-.57l-3.072-6.672V36h-.846zm12.796.18c-.644 0-1.194-.146-1.65-.438a2.85 2.85 0 0 1-1.05-1.212c-.244-.516-.366-1.108-.366-1.776 0-.68.124-1.276.372-1.788s.6-.91 1.056-1.194c.46-.288 1.006-.432 1.638-.432.648 0 1.2.146 1.656.438.46.288.81.69 1.05 1.206.244.512.366 1.102.366 1.77 0 .68-.122 1.278-.366 1.794a2.804 2.804 0 0 1-1.056 1.2c-.46.288-1.01.432-1.65.432zm0-.846c.72 0 1.256-.238 1.608-.714.352-.48.528-1.102.528-1.866 0-.784-.178-1.408-.534-1.872-.352-.464-.886-.696-1.602-.696-.484 0-.884.11-1.2.33a1.957 1.957 0 0 0-.702.906c-.152.384-.228.828-.228 1.332 0 .78.18 1.406.54 1.878.36.468.89.702 1.59.702zm9.075.666v-3.306c0-.36-.034-.69-.102-.99a2.283 2.283 0 0 0-.33-.792 1.509 1.509 0 0 0-.582-.528c-.236-.124-.524-.186-.864-.186-.312 0-.588.054-.828.162a1.631 1.631 0 0 0-.6.468c-.16.2-.282.444-.366.732a3.517 3.517 0 0 0-.126.984l-.624-.138c0-.664.116-1.222.348-1.674.232-.452.552-.794.96-1.026.408-.232.876-.348 1.404-.348.388 0 .726.06 1.014.18.292.12.538.282.738.486.204.204.368.438.492.702.124.26.214.538.27.834.056.292.084.584.084.876V36h-.888zm-4.686 0v-6.48h.798v1.596h.09V36h-.888zm10.659 0a4.318 4.318 0 0 1-1.08.09 2.396 2.396 0 0 1-.948-.228 1.368 1.368 0 0 1-.63-.636 1.869 1.869 0 0 1-.192-.726c-.008-.248-.012-.53-.012-.846V27.72h.876v5.898c0 .272.002.5.006.684.008.18.05.34.126.48a.903.903 0 0 0 .684.48c.316.052.706.04 1.17-.036V36zm-4.248-5.724v-.756h4.248v.756h-4.248zM311.641 36v-3.306c0-.36-.034-.69-.102-.99a2.283 2.283 0 0 0-.33-.792 1.509 1.509 0 0 0-.582-.528c-.236-.124-.524-.186-.864-.186-.312 0-.588.054-.828.162a1.631 1.631 0 0 0-.6.468c-.16.2-.282.444-.366.732a3.517 3.517 0 0 0-.126.984l-.624-.138c0-.664.116-1.222.348-1.674.232-.452.552-.794.96-1.026.408-.232.876-.348 1.404-.348.388 0 .726.06 1.014.18.292.12.538.282.738.486.204.204.368.438.492.702.124.26.214.538.27.834.056.292.084.584.084.876V36h-.888zm-4.686 0v-8.64h.798v4.878h.09V36h-.888zm7.251 0v-8.82h.882V36h-.882zm3.605 2.88 1.254-3.402.018 1.008-2.838-6.966h.936l2.328 5.826h-.384l2.148-5.826h.9l-3.48 9.36h-.882zm-35.509 55.3a4.086 4.086 0 0 1-1.644-.318 3.486 3.486 0 0 1-1.248-.906c-.34-.392-.6-.864-.78-1.416a6.019 6.019 0 0 1-.27-1.86c0-.904.156-1.692.468-2.364.316-.676.768-1.2 1.356-1.572.588-.372 1.294-.558 2.118-.558.92 0 1.668.216 2.244.648.58.428.984 1.004 1.212 1.728l-.888.216a2.613 2.613 0 0 0-.93-1.266c-.428-.316-.962-.474-1.602-.474-.676-.004-1.238.148-1.686.456-.448.304-.786.732-1.014 1.284-.224.548-.338 1.182-.342 1.902-.004.72.106 1.354.33 1.902.228.544.568.972 1.02 1.284.452.308 1.016.464 1.692.468.62 0 1.132-.12 1.536-.36.404-.24.71-.584.918-1.032.212-.448.332-.978.36-1.59h-1.992v-.756h2.916c.012.092.018.19.018.294.004.1.006.172.006.216 0 .78-.14 1.478-.42 2.094a3.307 3.307 0 0 1-1.266 1.452c-.56.352-1.264.528-2.112.528zm7.705 0c-.644 0-1.194-.146-1.65-.438a2.85 2.85 0 0 1-1.05-1.212c-.244-.516-.366-1.108-.366-1.776 0-.68.124-1.276.372-1.788s.6-.91 1.056-1.194c.46-.288 1.006-.432 1.638-.432.648 0 1.2.146 1.656.438.46.288.81.69 1.05 1.206.244.512.366 1.102.366 1.77 0 .68-.122 1.278-.366 1.794a2.804 2.804 0 0 1-1.056 1.2c-.46.288-1.01.432-1.65.432zm0-.846c.72 0 1.256-.238 1.608-.714.352-.48.528-1.102.528-1.866 0-.784-.178-1.408-.534-1.872-.352-.464-.886-.696-1.602-.696-.484 0-.884.11-1.2.33a1.957 1.957 0 0 0-.702.906c-.152.384-.228.828-.228 1.332 0 .78.18 1.406.54 1.878.36.468.89.702 1.59.702zm6.25.846c-.488 0-.898-.088-1.23-.264a1.79 1.79 0 0 1-.738-.702 1.915 1.915 0 0 1-.246-.954c0-.352.07-.652.21-.9.144-.252.338-.458.582-.618.248-.16.534-.282.858-.366.328-.08.69-.15 1.086-.21.4-.064.79-.118 1.17-.162.384-.048.72-.094 1.008-.138l-.312.192c.012-.64-.112-1.114-.372-1.422-.26-.308-.712-.462-1.356-.462-.444 0-.82.1-1.128.3-.304.2-.518.516-.643.948l-.857-.252c.148-.58.446-1.03.894-1.35.448-.32 1.03-.48 1.746-.48.592 0 1.094.112 1.506.336.416.22.71.54.882.96.08.188.132.398.156.63.024.232.036.468.036.708V94h-.786v-1.626l.228.096c-.22.556-.562.98-1.026 1.272-.464.292-1.02.438-1.668.438zm.102-.762c.412 0 .772-.074 1.08-.222.308-.148.556-.35.744-.606.188-.26.31-.552.366-.876.048-.208.074-.436.078-.684.004-.252.006-.44.006-.564l.336.174c-.3.04-.626.08-.978.12-.348.04-.692.086-1.032.138-.336.052-.64.114-.912.186a2.473 2.473 0 0 0-.534.222 1.233 1.233 0 0 0-.426.372.998.998 0 0 0-.162.582c0 .188.046.37.137.546.097.176.249.322.457.438.212.116.492.174.84.174zm4.831.582v-8.82h.882V94h-.882zm9.764 0v-3.306c0-.36-.034-.69-.102-.99a2.283 2.283 0 0 0-.33-.792 1.509 1.509 0 0 0-.582-.528c-.236-.124-.524-.186-.864-.186-.312 0-.588.054-.828.162a1.631 1.631 0 0 0-.6.468c-.16.2-.282.444-.366.732a3.517 3.517 0 0 0-.126.984l-.624-.138c0-.664.116-1.222.348-1.674.232-.452.552-.794.96-1.026.408-.232.876-.348 1.404-.348.388 0 .726.06 1.014.18.292.12.538.282.738.486.204.204.368.438.492.702.124.26.214.538.27.834.056.292.084.584.084.876V94h-.888zm-4.686 0v-6.48h.798v1.596h.09V94h-.888zm9.837.18c-.632 0-1.18-.14-1.644-.42a2.85 2.85 0 0 1-1.074-1.182c-.256-.508-.384-1.104-.384-1.788 0-.708.126-1.32.378-1.836a2.81 2.81 0 0 1 1.062-1.194c.46-.28 1.002-.42 1.626-.42.64 0 1.186.148 1.638.444.452.292.794.712 1.026 1.26.232.548.338 1.202.318 1.962h-.9v-.312c-.016-.84-.198-1.474-.546-1.902-.344-.428-.848-.642-1.512-.642-.696 0-1.23.226-1.602.678-.368.452-.552 1.096-.552 1.932 0 .816.184 1.45.552 1.902.372.448.898.672 1.578.672.464 0 .868-.106 1.212-.318.348-.216.622-.526.822-.93l.822.318a2.94 2.94 0 0 1-1.134 1.314 3.13 3.13 0 0 1-1.686.462zm-2.478-3.174v-.738h4.95v.738h-4.95zM323.911 94a4.318 4.318 0 0 1-1.08.09 2.396 2.396 0 0 1-.948-.228 1.368 1.368 0 0 1-.63-.636 1.869 1.869 0 0 1-.192-.726c-.008-.248-.012-.53-.012-.846V85.72h.876v5.898c0 .272.002.5.006.684.008.18.05.34.126.48a.903.903 0 0 0 .684.48c.316.052.706.04 1.17-.036V94zm-4.248-5.724v-.756h4.248v.756h-4.248zM328.97 94l-1.98-6.486.882.006 1.536 5.034 1.542-5.034h.804l1.542 5.034 1.548-5.034h.876L333.74 94h-.768l-1.62-5.16-1.614 5.16h-.768zm10.303.18c-.644 0-1.194-.146-1.65-.438a2.85 2.85 0 0 1-1.05-1.212c-.244-.516-.366-1.108-.366-1.776 0-.68.124-1.276.372-1.788s.6-.91 1.056-1.194c.46-.288 1.006-.432 1.638-.432.648 0 1.2.146 1.656.438.46.288.81.69 1.05 1.206.244.512.366 1.102.366 1.77 0 .68-.122 1.278-.366 1.794a2.804 2.804 0 0 1-1.056 1.2c-.46.288-1.01.432-1.65.432zm0-.846c.72 0 1.256-.238 1.608-.714.352-.48.528-1.102.528-1.866 0-.784-.178-1.408-.534-1.872-.352-.464-.886-.696-1.602-.696-.484 0-.884.11-1.2.33a1.957 1.957 0 0 0-.702.906c-.152.384-.228.828-.228 1.332 0 .78.18 1.406.54 1.878.36.468.89.702 1.59.702zm4.395.666v-6.48h.792v1.56l-.156-.204c.072-.192.166-.368.282-.528a1.83 1.83 0 0 1 .378-.402 1.71 1.71 0 0 1 .588-.336c.224-.08.45-.126.678-.138.228-.016.436 0 .624.048v.828a2.14 2.14 0 0 0-.774-.042c-.28.032-.538.144-.774.336a1.61 1.61 0 0 0-.486.606c-.108.232-.18.48-.216.744-.036.26-.054.518-.054.774V94h-.882zm7.852 0a4.318 4.318 0 0 1-1.08.09 2.396 2.396 0 0 1-.948-.228 1.368 1.368 0 0 1-.63-.636 1.869 1.869 0 0 1-.192-.726c-.008-.248-.012-.53-.012-.846V85.72h.876v5.898c0 .272.002.5.006.684.008.18.05.34.126.48a.903.903 0 0 0 .684.48c.316.052.706.04 1.17-.036V94zm-4.248-5.724v-.756h4.248v.756h-4.248zM357.477 94v-3.306c0-.36-.034-.69-.102-.99a2.283 2.283 0 0 0-.33-.792 1.509 1.509 0 0 0-.582-.528c-.236-.124-.524-.186-.864-.186-.312 0-.588.054-.828.162a1.631 1.631 0 0 0-.6.468c-.16.2-.282.444-.366.732a3.517 3.517 0 0 0-.126.984l-.624-.138c0-.664.116-1.222.348-1.674.232-.452.552-.794.96-1.026.408-.232.876-.348 1.404-.348.388 0 .726.06 1.014.18.292.12.538.282.738.486.204.204.368.438.492.702.124.26.214.538.27.834.056.292.084.584.084.876V94h-.888zm-4.686 0v-8.64h.798v4.878h.09V94h-.888zM78.644 122v-1.674H74.6v-.84l2.892-6.126h.99l-2.892 6.126h3.054v-2.52h.888v2.52h.942v.84h-.942V122h-.888zm6.094.18a2.82 2.82 0 0 1-1.44-.372 2.768 2.768 0 0 1-1.008-1.008 2.82 2.82 0 0 1-.372-1.44V116a2.787 2.787 0 0 1 1.38-2.448 2.82 2.82 0 0 1 1.44-.372c.532 0 1.01.124 1.434.372a2.74 2.74 0 0 1 1.014 1.014c.248.424.372.902.372 1.434v3.36a2.82 2.82 0 0 1-.372 1.44 2.787 2.787 0 0 1-2.448 1.38zm0-.852c.356 0 .68-.086.972-.258.292-.176.524-.41.696-.702.172-.292.258-.614.258-.966v-3.444c0-.356-.086-.68-.258-.972a1.935 1.935 0 0 0-.696-.696 1.847 1.847 0 0 0-.972-.264c-.356 0-.68.088-.972.264a1.935 1.935 0 0 0-.696.696 1.88 1.88 0 0 0-.258.972v3.444c0 .352.086.674.258.966.172.292.404.526.696.702.292.172.616.258.972.258zm34.906.672v-1.674H115.6v-.84l2.892-6.126h.99l-2.892 6.126h3.054v-2.52h.888v2.52h.942v.84h-.942V122h-.888zm5.824.18c-.448 0-.862-.092-1.242-.276a2.87 2.87 0 0 1-.972-.762 2.969 2.969 0 0 1-.576-1.116l.846-.228c.076.312.214.582.414.81.2.224.434.398.702.522.272.124.556.186.852.186.384 0 .728-.092 1.032-.276.308-.188.552-.436.732-.744.18-.308.27-.646.27-1.014 0-.38-.094-.722-.282-1.026a2.103 2.103 0 0 0-.744-.732 1.962 1.962 0 0 0-1.008-.27c-.408 0-.76.09-1.056.27a2.138 2.138 0 0 0-.708.666l-.804-.336.264-4.494h4.614v.846h-4.224l.438-.414-.234 3.834-.222-.294c.248-.284.548-.506.9-.666.352-.16.722-.24 1.11-.24.532 0 1.012.128 1.44.384a2.819 2.819 0 0 1 1.398 2.472c0 .528-.134 1.012-.402 1.452a3.085 3.085 0 0 1-1.068 1.05 2.823 2.823 0 0 1-1.47.396zm33.922 0c-.448 0-.862-.092-1.242-.276a2.87 2.87 0 0 1-.972-.762 2.969 2.969 0 0 1-.576-1.116l.846-.228c.076.312.214.582.414.81.2.224.434.398.702.522.272.124.556.186.852.186.384 0 .728-.092 1.032-.276.308-.188.552-.436.732-.744.18-.308.27-.646.27-1.014 0-.38-.094-.722-.282-1.026a2.103 2.103 0 0 0-.744-.732 1.962 1.962 0 0 0-1.008-.27c-.408 0-.76.09-1.056.27a2.138 2.138 0 0 0-.708.666l-.804-.336.264-4.494h4.614v.846H157.5l.438-.414-.234 3.834-.222-.294c.248-.284.548-.506.9-.666.352-.16.722-.24 1.11-.24.532 0 1.012.128 1.44.384a2.819 2.819 0 0 1 1.398 2.472c0 .528-.134 1.012-.402 1.452a3.085 3.085 0 0 1-1.068 1.05 2.823 2.823 0 0 1-1.47.396zm7.196 0a2.82 2.82 0 0 1-1.44-.372 2.768 2.768 0 0 1-1.008-1.008 2.82 2.82 0 0 1-.372-1.44V116a2.787 2.787 0 0 1 1.38-2.448 2.82 2.82 0 0 1 1.44-.372c.532 0 1.01.124 1.434.372a2.74 2.74 0 0 1 1.014 1.014c.248.424.372.902.372 1.434v3.36a2.82 2.82 0 0 1-.372 1.44 2.787 2.787 0 0 1-2.448 1.38zm0-.852c.356 0 .68-.086.972-.258.292-.176.524-.41.696-.702.172-.292.258-.614.258-.966v-3.444c0-.356-.086-.68-.258-.972a1.935 1.935 0 0 0-.696-.696 1.847 1.847 0 0 0-.972-.264c-.356 0-.68.088-.972.264a1.935 1.935 0 0 0-.696.696 1.88 1.88 0 0 0-.258.972v3.444c0 .352.086.674.258.966.172.292.404.526.696.702.292.172.616.258.972.258zm33.804.852c-.448 0-.862-.092-1.242-.276a2.87 2.87 0 0 1-.972-.762 2.969 2.969 0 0 1-.576-1.116l.846-.228c.076.312.214.582.414.81.2.224.434.398.702.522.272.124.556.186.852.186.384 0 .728-.092 1.032-.276.308-.188.552-.436.732-.744.18-.308.27-.646.27-1.014 0-.38-.094-.722-.282-1.026a2.103 2.103 0 0 0-.744-.732 1.962 1.962 0 0 0-1.008-.27c-.408 0-.76.09-1.056.27a2.138 2.138 0 0 0-.708.666l-.804-.336.264-4.494h4.614v.846H198.5l.438-.414-.234 3.834-.222-.294c.248-.284.548-.506.9-.666.352-.16.722-.24 1.11-.24.532 0 1.012.128 1.44.384a2.819 2.819 0 0 1 1.398 2.472c0 .528-.134 1.012-.402 1.452a3.085 3.085 0 0 1-1.068 1.05 2.823 2.823 0 0 1-1.47.396zm6.926 0c-.448 0-.862-.092-1.242-.276a2.87 2.87 0 0 1-.972-.762 2.969 2.969 0 0 1-.576-1.116l.846-.228c.076.312.214.582.414.81.2.224.434.398.702.522.272.124.556.186.852.186.384 0 .728-.092 1.032-.276.308-.188.552-.436.732-.744.18-.308.27-.646.27-1.014 0-.38-.094-.722-.282-1.026a2.103 2.103 0 0 0-.744-.732 1.962 1.962 0 0 0-1.008-.27c-.408 0-.76.09-1.056.27a2.138 2.138 0 0 0-.708.666l-.804-.336.264-4.494h4.614v.846h-4.224l.438-.414-.234 3.834-.222-.294c.248-.284.548-.506.9-.666.352-.16.722-.24 1.11-.24.532 0 1.012.128 1.44.384a2.819 2.819 0 0 1 1.398 2.472c0 .528-.134 1.012-.402 1.452a3.085 3.085 0 0 1-1.068 1.05 2.823 2.823 0 0 1-1.47.396zm33.446 0c-.54 0-1.032-.13-1.476-.39a3.002 3.002 0 0 1-1.056-1.068 3 3 0 0 1-.39-1.524v-2.994c0-.58.13-1.096.39-1.548.26-.456.614-.814 1.062-1.074a2.989 2.989 0 0 1 1.536-.396c.492 0 .948.108 1.368.324.424.216.77.518 1.038.906l-.678.558a2.054 2.054 0 0 0-1.728-.948c-.404 0-.764.098-1.08.294a2.123 2.123 0 0 0-1.014 1.806v1.884l-.222-.252c.252-.396.582-.716.99-.96a2.59 2.59 0 0 1 1.344-.366 2.819 2.819 0 0 1 2.844 2.862c0 .532-.134 1.016-.402 1.452a2.984 2.984 0 0 1-1.062 1.044c-.44.26-.928.39-1.464.39zm0-.858c.376 0 .718-.09 1.026-.27.312-.18.558-.424.738-.732.184-.308.276-.65.276-1.026s-.092-.718-.276-1.026a1.994 1.994 0 0 0-.732-.738 1.963 1.963 0 0 0-1.026-.276c-.376 0-.718.092-1.026.276a2.04 2.04 0 0 0-.738.738c-.18.308-.27.65-.27 1.026 0 .372.09.712.27 1.02a1.996 1.996 0 0 0 1.758 1.008zm7.339.858a2.82 2.82 0 0 1-1.44-.372 2.768 2.768 0 0 1-1.008-1.008 2.82 2.82 0 0 1-.372-1.44V116a2.787 2.787 0 0 1 1.38-2.448 2.82 2.82 0 0 1 1.44-.372c.532 0 1.01.124 1.434.372a2.74 2.74 0 0 1 1.014 1.014c.248.424.372.902.372 1.434v3.36a2.82 2.82 0 0 1-.372 1.44 2.787 2.787 0 0 1-2.448 1.38zm0-.852c.356 0 .68-.086.972-.258.292-.176.524-.41.696-.702.172-.292.258-.614.258-.966v-3.444c0-.356-.086-.68-.258-.972a1.935 1.935 0 0 0-.696-.696 1.847 1.847 0 0 0-.972-.264c-.356 0-.68.088-.972.264a1.935 1.935 0 0 0-.696.696 1.88 1.88 0 0 0-.258.972v3.444c0 .352.086.674.258.966.172.292.404.526.696.702.292.172.616.258.972.258z"/><path stroke="#C9D4E4" d="M66 30.5h189m-189 38h189m-189 38h189"/><path stroke="#1065E3" stroke-dasharray="4 4" stroke-linejoin="round" stroke-width="3" d="M72 97s147.062-8.95 181-66" opacity=".6"/><path stroke="#1065E3" stroke-width="3" d="M72 97s32.76-1.977 71-10"/><path fill="#1065E3" stroke="#E4E9F1" stroke-width="3" d="M146.285 92.948c3.731 0 6.786-2.994 6.786-6.724s-3.055-6.724-6.786-6.724c-3.731 0-6.785 2.994-6.785 6.724s3.054 6.724 6.785 6.724z"/><path fill="#485E79" d="M27.12 36.182v-1.368h.882v1.368h-.882zm0-9.642v-1.374h.882v1.374h-.882zm.546 8.64a3.779 3.779 0 0 1-1.548-.306 3.012 3.012 0 0 1-1.134-.864 2.916 2.916 0 0 1-.582-1.32l.858-.15c.132.552.416.99.852 1.314.44.32.97.48 1.59.48.628 0 1.136-.152 1.524-.456.388-.308.582-.71.582-1.206 0-.368-.108-.662-.324-.882-.216-.22-.582-.408-1.098-.564l-1.92-.6c-1.16-.364-1.74-1.052-1.74-2.064 0-.472.116-.886.348-1.242.236-.36.562-.64.978-.84.42-.2.91-.298 1.47-.294.548 0 1.038.104 1.47.312a2.79 2.79 0 0 1 1.074.87c.28.376.466.822.558 1.338l-.882.168a2.138 2.138 0 0 0-.39-.966 2.02 2.02 0 0 0-.774-.642 2.41 2.41 0 0 0-1.056-.24 2.4 2.4 0 0 0-.984.192 1.671 1.671 0 0 0-.684.534 1.276 1.276 0 0 0-.246.774c0 .32.114.592.342.816.232.22.598.406 1.098.558l1.65.498c.696.208 1.198.488 1.506.84.308.352.462.822.462 1.41 0 .508-.124.952-.372 1.332-.248.38-.598.676-1.05.888-.448.208-.974.312-1.578.312zm4-.186.006-.804 3.906-3.528c.336-.304.558-.592.666-.864.112-.276.168-.564.168-.864a1.882 1.882 0 0 0-.93-1.65 1.805 1.805 0 0 0-.954-.258c-.368 0-.696.088-.984.264a1.965 1.965 0 0 0-.684.696 1.826 1.826 0 0 0-.24.942h-.9a2.7 2.7 0 0 1 .372-1.41 2.659 2.659 0 0 1 1.008-.978c.424-.24.904-.36 1.44-.36a2.7 2.7 0 0 1 1.41.372c.42.244.75.576.99.996a2.7 2.7 0 0 1 .366 1.392c0 .36-.044.678-.132.954a2.37 2.37 0 0 1-.402.762c-.18.232-.41.472-.69.72l-3.468 3.132-.138-.36h4.83v.846h-5.64zm7.252.006v-1.026h1.026V35h-1.026zm5.723-8.814c.544 0 1.036.132 1.476.396.444.26.796.616 1.056 1.068.26.448.39.952.39 1.512v3a3.07 3.07 0 0 1-.39 1.548c-.26.456-.616.816-1.068 1.08-.448.26-.958.39-1.53.39-.492 0-.948-.108-1.368-.324a2.921 2.921 0 0 1-1.032-.906l.672-.558c.184.284.428.512.732.684.308.172.64.258.996.258.408 0 .768-.096 1.08-.288.316-.196.564-.452.744-.768.184-.32.276-.666.276-1.038v-1.884l.216.252a2.88 2.88 0 0 1-.99.96 2.57 2.57 0 0 1-1.344.366 2.783 2.783 0 0 1-1.446-.384 2.866 2.866 0 0 1-1.02-1.032 2.852 2.852 0 0 1-.372-1.446c0-.532.132-1.016.396-1.452a2.92 2.92 0 0 1 1.062-1.044c.444-.26.932-.39 1.464-.39zm0 .852c-.376 0-.718.092-1.026.276a1.996 1.996 0 0 0-1.008 1.758c0 .376.09.718.27 1.026a1.996 1.996 0 0 0 1.758 1.008c.376 0 .718-.09 1.026-.27a2.04 2.04 0 0 0 .738-.738c.184-.308.276-.65.276-1.026 0-.372-.092-.712-.276-1.02a2.054 2.054 0 0 0-.732-.738 1.963 1.963 0 0 0-1.026-.276zM49.238 35v-8.64h.81l3.396 7.266 3.378-7.266h.822v8.634h-.84v-6.666L53.726 35h-.57l-3.072-6.672V35h-.846zM27.12 72.182v-1.368h.882v1.368h-.882zm0-9.642v-1.374h.882v1.374h-.882zm.546 8.64a3.779 3.779 0 0 1-1.548-.306 3.012 3.012 0 0 1-1.134-.864 2.916 2.916 0 0 1-.582-1.32l.858-.15c.132.552.416.99.852 1.314.44.32.97.48 1.59.48.628 0 1.136-.152 1.524-.456.388-.308.582-.71.582-1.206 0-.368-.108-.662-.324-.882-.216-.22-.582-.408-1.098-.564l-1.92-.6c-1.16-.364-1.74-1.052-1.74-2.064 0-.472.116-.886.348-1.242.236-.36.562-.64.978-.84.42-.2.91-.298 1.47-.294.548 0 1.038.104 1.47.312a2.79 2.79 0 0 1 1.074.87c.28.376.466.822.558 1.338l-.882.168a2.138 2.138 0 0 0-.39-.966 2.02 2.02 0 0 0-.774-.642 2.41 2.41 0 0 0-1.056-.24 2.4 2.4 0 0 0-.984.192 1.671 1.671 0 0 0-.684.534 1.276 1.276 0 0 0-.246.774c0 .32.114.592.342.816.232.22.598.406 1.098.558l1.65.498c.696.208 1.198.488 1.506.84.308.352.462.822.462 1.41 0 .508-.124.952-.372 1.332-.248.38-.598.676-1.05.888-.448.208-.974.312-1.578.312zm5.746-.18v-7.656l-1.626.978v-.99l1.626-.972h.894V71h-.894zm2.858 0v-1.026h1.026V71H36.27zm3.34 0 3.18-7.782h-4v-.858h4.944v.858L40.559 71h-.948zm5.562 0v-8.64h.81l3.396 7.266 3.378-7.266h.822v8.634h-.84v-6.666L49.66 71h-.57l-3.072-6.672V71h-.846zM27.12 108.182v-1.368h.882v1.368h-.882zm0-9.642v-1.374h.882v1.374h-.882zm.546 8.64a3.779 3.779 0 0 1-1.548-.306 3.012 3.012 0 0 1-1.134-.864 2.916 2.916 0 0 1-.582-1.32l.858-.15c.132.552.416.99.852 1.314.44.32.97.48 1.59.48.628 0 1.136-.152 1.524-.456.388-.308.582-.71.582-1.206 0-.368-.108-.662-.324-.882-.216-.22-.582-.408-1.098-.564l-1.92-.6c-1.16-.364-1.74-1.052-1.74-2.064 0-.472.116-.886.348-1.242.236-.36.562-.64.978-.84.42-.2.91-.298 1.47-.294.548 0 1.038.104 1.47.312a2.79 2.79 0 0 1 1.074.87c.28.376.466.822.558 1.338l-.882.168a2.138 2.138 0 0 0-.39-.966 2.02 2.02 0 0 0-.774-.642 2.41 2.41 0 0 0-1.056-.24 2.4 2.4 0 0 0-.984.192 1.671 1.671 0 0 0-.684.534 1.276 1.276 0 0 0-.246.774c0 .32.114.592.342.816.232.22.598.406 1.098.558l1.65.498c.696.208 1.198.488 1.506.84.308.352.462.822.462 1.41 0 .508-.124.952-.372 1.332-.248.38-.598.676-1.05.888-.448.208-.974.312-1.578.312zm5.746-.18v-7.656l-1.626.978v-.99l1.626-.972h.894V107h-.894zm2.858 0v-1.026h1.026V107H36.27zm2.639-.006.006-.804 3.906-3.528c.336-.304.558-.592.666-.864.112-.276.168-.564.168-.864a1.882 1.882 0 0 0-.93-1.65 1.805 1.805 0 0 0-.954-.258c-.368 0-.696.088-.984.264a1.965 1.965 0 0 0-.684.696 1.826 1.826 0 0 0-.24.942h-.9a2.7 2.7 0 0 1 .372-1.41 2.659 2.659 0 0 1 1.008-.978c.424-.24.904-.36 1.44-.36a2.7 2.7 0 0 1 1.41.372c.42.244.75.576.99.996a2.7 2.7 0 0 1 .366 1.392c0 .36-.044.678-.132.954a2.37 2.37 0 0 1-.402.762c-.18.232-.41.472-.69.72l-3.468 3.132-.138-.36h4.83v.846h-5.64zm7.083.006v-8.64h.81l3.396 7.266 3.378-7.266h.822v8.634h-.84v-6.666L50.48 107h-.57l-3.072-6.672V107h-.846z"/><defs><linearGradient id="a" x1="329.079" x2="152.636" y1="0" y2="286.942" gradientUnits="userSpaceOnUse"><stop stop-color="#fff"/><stop offset="1" stop-color="#C8D3E3"/></linearGradient></defs></svg>