<svg xmlns="http://www.w3.org/2000/svg" width="375" height="240" fill="none"><path fill="#475467" d="M29.1 4.273h1.058v6.238c0 .557-.103 1.03-.307 1.42a2.09 2.09 0 0 1-.865.886c-.372.201-.811.302-1.317.302-.477 0-.902-.086-1.274-.26a2.101 2.101 0 0 1-.878-.75c-.213-.323-.32-.708-.32-1.155h1.04c0 .248.061.464.184.648.125.182.295.324.51.426.217.103.462.154.738.154.304 0 .563-.064.776-.192.213-.128.375-.315.485-.562.114-.25.17-.556.17-.917V4.273zm4.965 8.88c-.414 0-.79-.078-1.129-.234a1.938 1.938 0 0 1-.805-.686c-.2-.301-.299-.665-.299-1.091 0-.375.074-.679.222-.912.148-.236.345-.42.592-.554.248-.133.52-.233.819-.298.3-.068.603-.122.907-.162.398-.051.72-.09.968-.115.25-.029.431-.075.545-.14.116-.066.175-.18.175-.342v-.034c0-.42-.115-.747-.346-.98-.227-.233-.572-.35-1.035-.35-.48 0-.857.106-1.13.316-.272.21-.464.435-.575.673l-.954-.34c.17-.398.398-.708.682-.93.287-.224.6-.38.937-.468a3.89 3.89 0 0 1 1.006-.137c.21 0 .452.026.724.077.276.048.541.15.797.303.259.153.473.385.644.694.17.31.255.725.255 1.245V13H36.06v-.886h-.052a1.77 1.77 0 0 1-.34.456c-.16.162-.371.3-.635.413-.264.114-.587.17-.968.17zm.154-.903c.398 0 .733-.078 1.005-.234a1.595 1.595 0 0 0 .836-1.385v-.92c-.043.05-.137.097-.282.14-.142.04-.306.075-.494.106a22.395 22.395 0 0 1-.963.128c-.261.034-.506.09-.733.166a1.263 1.263 0 0 0-.545.337c-.137.148-.205.35-.205.605 0 .35.13.614.388.793.261.176.592.264.993.264zm5.688-3.188V13H38.9V6.455h.971v1.022h.086c.153-.332.386-.6.699-.8.312-.205.716-.308 1.21-.308.443 0 .83.091 1.163.273.333.179.591.452.776.818.184.364.277.824.277 1.38V13h-1.006V8.91c0-.515-.133-.916-.4-1.203-.268-.29-.634-.434-1.1-.434-.321 0-.608.07-.86.209-.25.139-.448.342-.593.609-.145.267-.217.59-.217.972zm35.415-4.789h1.26l2.967 7.244h.102l2.966-7.244h1.261V13h-.988V6.37h-.086L80.077 13h-.954l-2.728-6.63h-.085V13h-.989V4.273zm12.465 8.88c-.415 0-.791-.078-1.13-.234a1.938 1.938 0 0 1-.805-.686c-.199-.301-.298-.665-.298-1.091 0-.375.074-.679.222-.912.147-.236.345-.42.592-.554a3.12 3.12 0 0 1 .818-.298 9.96 9.96 0 0 1 .908-.162c.398-.051.72-.09.967-.115.25-.029.432-.075.546-.14.116-.066.174-.18.174-.342v-.034c0-.42-.115-.747-.345-.98-.227-.233-.572-.35-1.035-.35-.48 0-.857.106-1.13.316-.272.21-.464.435-.575.673l-.954-.34c.17-.398.397-.708.681-.93.287-.224.6-.38.938-.468.34-.091.676-.137 1.006-.137a4 4 0 0 1 .724.077c.276.048.541.15.797.303.258.153.473.385.643.694.17.31.256.725.256 1.245V13h-1.006v-.886h-.05a1.77 1.77 0 0 1-.342.456c-.159.162-.37.3-.635.413-.264.114-.586.17-.967.17zm.153-.903c.398 0 .733-.078 1.006-.234a1.595 1.595 0 0 0 .835-1.385v-.92c-.042.05-.136.097-.28.14-.143.04-.308.075-.495.106a22.395 22.395 0 0 1-.963.128c-.262.034-.506.09-.733.166a1.264 1.264 0 0 0-.546.337c-.136.148-.204.35-.204.605 0 .35.129.614.388.793.26.176.592.264.992.264zm4.683.75V6.455h.971v.988h.068c.12-.324.336-.586.648-.788a1.907 1.907 0 0 1 1.057-.303 10.862 10.862 0 0 1 .528.017v1.023a2.984 2.984 0 0 0-.234-.038c-.12-.02-.246-.03-.38-.03a1.78 1.78 0 0 0-.852.2 1.47 1.47 0 0 0-.801 1.334V13h-1.005zm33.884-8.727h1.261l2.966 7.244h.103l2.965-7.244h1.262V13h-.989V6.37h-.085L131.263 13h-.955l-2.727-6.63h-.085V13h-.989V4.273zm12.466 8.88c-.415 0-.792-.078-1.13-.234a1.939 1.939 0 0 1-.805-.686c-.199-.301-.298-.665-.298-1.091 0-.375.073-.679.221-.912.148-.236.345-.42.593-.554a3.1 3.1 0 0 1 .818-.298c.301-.068.603-.122.907-.162.398-.051.721-.09.968-.115.25-.029.432-.075.545-.14.117-.066.175-.18.175-.342v-.034c0-.42-.115-.747-.345-.98-.228-.233-.573-.35-1.036-.35-.48 0-.856.106-1.129.316-.273.21-.465.435-.575.673l-.955-.34c.171-.398.398-.708.682-.93.287-.224.599-.38.937-.468a3.896 3.896 0 0 1 1.006-.137c.21 0 .452.026.725.077.275.048.541.15.796.303.259.153.473.385.644.694.17.31.256.725.256 1.245V13h-1.006v-.886h-.051a1.768 1.768 0 0 1-.341.456 1.97 1.97 0 0 1-.635.413c-.264.114-.587.17-.967.17zm.153-.903c.398 0 .733-.078 1.006-.234a1.597 1.597 0 0 0 .835-1.385v-.92c-.043.05-.136.097-.281.14a4.73 4.73 0 0 1-.495.106 21.966 21.966 0 0 1-.963.128 3.91 3.91 0 0 0-.733.166 1.263 1.263 0 0 0-.545.337c-.137.148-.205.35-.205.605 0 .35.13.614.388.793.261.176.592.264.993.264zm5.096 3.204c-.171 0-.323-.014-.456-.042a1.189 1.189 0 0 1-.277-.077l.255-.886c.245.062.46.085.648.068a.778.778 0 0 0 .499-.251c.147-.148.282-.388.404-.72l.188-.512-2.421-6.58h1.091l1.807 5.217h.068l1.807-5.216h1.091l-2.778 7.5a2.83 2.83 0 0 1-.465.839c-.185.224-.399.39-.643.499a1.987 1.987 0 0 1-.818.162zm39.34-11.181h1.057v6.238c0 .557-.103 1.03-.307 1.42a2.09 2.09 0 0 1-.865.886c-.372.201-.811.302-1.317.302-.477 0-.902-.086-1.274-.26a2.102 2.102 0 0 1-.878-.75c-.213-.323-.32-.708-.32-1.155h1.04c0 .248.061.464.183.648.125.182.296.324.512.426a1.7 1.7 0 0 0 .737.154c.304 0 .562-.064.776-.192.213-.128.375-.315.485-.562.114-.25.171-.556.171-.917V4.273zm7.163 6.05V6.456h1.006V13h-1.006v-1.108h-.068a2.144 2.144 0 0 1-.716.848c-.324.23-.733.345-1.227.345-.409 0-.773-.09-1.091-.268a1.882 1.882 0 0 1-.75-.818c-.182-.367-.273-.829-.273-1.385v-4.16h1.006v4.092c0 .477.133.857.4 1.142.27.284.614.426 1.032.426.25 0 .504-.064.762-.192a1.66 1.66 0 0 0 .657-.588c.179-.264.268-.601.268-1.01zm3.853-6.05V13h-1.005V4.273h1.005zm35.969 2.182a1.336 1.336 0 0 0-.622-1.006c-.363-.239-.809-.358-1.338-.358-.386 0-.724.062-1.014.187a1.619 1.619 0 0 0-.673.516 1.237 1.237 0 0 0-.239.746c0 .233.055.433.166.6.114.165.259.303.435.414.176.108.361.197.554.268.193.069.371.124.532.167l.887.238c.227.06.48.142.758.247.282.106.55.249.806.43.258.18.471.41.639.691.168.281.251.627.251 1.036 0 .471-.123.897-.37 1.278-.245.38-.603.683-1.074.908-.469.224-1.039.336-1.709.336-.625 0-1.166-.1-1.624-.302a2.586 2.586 0 0 1-1.073-.844 2.402 2.402 0 0 1-.439-1.257h1.091c.028.33.139.602.332.818.196.213.443.372.741.478.302.102.625.153.972.153.403 0 .766-.066 1.087-.196.321-.134.575-.318.762-.554a1.31 1.31 0 0 0 .282-.835c0-.29-.081-.526-.243-.708a1.784 1.784 0 0 0-.639-.443 6.758 6.758 0 0 0-.857-.298l-1.074-.307c-.682-.196-1.221-.476-1.619-.84-.398-.363-.597-.839-.597-1.427 0-.489.132-.915.397-1.279a2.64 2.64 0 0 1 1.073-.852 3.628 3.628 0 0 1 1.513-.307c.563 0 1.063.101 1.5.303a2.6 2.6 0 0 1 1.04.818c.258.347.395.74.409 1.18h-1.023zm5.488 6.681c-.631 0-1.175-.139-1.632-.417a2.8 2.8 0 0 1-1.053-1.176c-.244-.506-.366-1.094-.366-1.765 0-.67.122-1.261.366-1.772a2.892 2.892 0 0 1 1.031-1.202c.444-.29.961-.435 1.552-.435.341 0 .677.057 1.01.17.332.114.635.3.907.555.273.253.49.588.652 1.005.162.418.243.932.243 1.543v.426H233.7v-.87h4.022c0-.368-.073-.698-.221-.988a1.67 1.67 0 0 0-.622-.686 1.744 1.744 0 0 0-.946-.251c-.401 0-.748.1-1.04.298a1.96 1.96 0 0 0-.669.767 2.257 2.257 0 0 0-.235 1.014v.58c0 .494.086.913.256 1.257.173.34.413.6.72.78.307.176.664.264 1.07.264a2.2 2.2 0 0 0 .716-.11 1.53 1.53 0 0 0 .558-.342c.156-.153.277-.344.362-.57l.972.272c-.102.33-.274.62-.516.87-.241.246-.54.44-.895.579a3.316 3.316 0 0 1-1.197.204zm4.24 2.319v-9h.972v1.04h.119a8.18 8.18 0 0 1 .307-.435c.133-.18.324-.338.571-.478.25-.142.588-.213 1.014-.213.551 0 1.037.138 1.457.414.421.275.749.666.985 1.172.235.505.353 1.102.353 1.79 0 .693-.118 1.293-.353 1.802-.236.506-.563.898-.98 1.176-.418.276-.9.413-1.445.413-.421 0-.757-.07-1.01-.208a1.879 1.879 0 0 1-.584-.482 6.602 6.602 0 0 1-.315-.452h-.085v3.46h-1.006zm.989-5.728c0 .495.072.93.217 1.309.145.375.356.668.635.882.278.21.619.315 1.023.315.42 0 .771-.11 1.052-.332.284-.225.497-.526.639-.904a3.54 3.54 0 0 0 .218-1.27c0-.46-.071-.875-.213-1.244a1.93 1.93 0 0 0-.635-.882c-.282-.219-.635-.328-1.061-.328-.41 0-.753.103-1.032.31a1.868 1.868 0 0 0-.63.862c-.142.366-.213.794-.213 1.282zm42.906-5.454V13h-1.023l-4.756-6.852h-.085V13h-1.057V4.273h1.023l4.773 6.869h.085v-6.87h1.04zm4.637 8.863c-.591 0-1.109-.14-1.555-.421a2.868 2.868 0 0 1-1.04-1.18c-.247-.507-.371-1.098-.371-1.774 0-.681.124-1.277.371-1.785.25-.509.597-.904 1.04-1.185.446-.281.964-.422 1.555-.422s1.108.14 1.551.422c.446.281.793.676 1.04 1.185.25.508.375 1.104.375 1.785 0 .677-.125 1.267-.375 1.773-.247.506-.594.9-1.04 1.18-.443.282-.96.422-1.551.422zm0-.903c.449 0 .818-.115 1.108-.345.29-.23.504-.533.644-.908a3.48 3.48 0 0 0 .208-1.219c0-.437-.069-.845-.208-1.223a2.067 2.067 0 0 0-.644-.916c-.29-.233-.659-.35-1.108-.35-.449 0-.818.117-1.108.35-.29.233-.504.539-.643.916-.14.378-.209.786-.209 1.223 0 .438.069.844.209 1.22.139.374.353.677.643.907.29.23.659.345 1.108.345zm9.619-5.778L296.006 13h-1.023l-2.421-6.545h1.091l1.807 5.216h.068l1.807-5.216h1.091zM332.438 13h-2.694V4.273h2.813c.846 0 1.571.174 2.173.524a3.433 3.433 0 0 1 1.385 1.496c.321.647.482 1.423.482 2.326 0 .91-.162 1.692-.486 2.348a3.465 3.465 0 0 1-1.415 1.509c-.619.35-1.372.524-2.258.524zm-1.637-.938h1.568c.722 0 1.32-.139 1.794-.417a2.57 2.57 0 0 0 1.061-1.189c.233-.514.35-1.126.35-1.837 0-.704-.115-1.31-.345-1.82a2.543 2.543 0 0 0-1.032-1.175c-.457-.276-1.027-.414-1.708-.414h-1.688v6.853zm10.176 1.074c-.63 0-1.174-.139-1.632-.417a2.805 2.805 0 0 1-1.052-1.176c-.245-.506-.367-1.094-.367-1.765 0-.67.122-1.261.367-1.772a2.892 2.892 0 0 1 1.031-1.202c.443-.29.96-.435 1.551-.435.341 0 .678.057 1.01.17.332.114.635.3.908.555.272.253.49.588.652 1.005.162.418.243.932.243 1.543v.426h-5.046v-.87h4.023c0-.368-.074-.698-.222-.988a1.67 1.67 0 0 0-.622-.686 1.741 1.741 0 0 0-.946-.251c-.401 0-.747.1-1.04.298a1.96 1.96 0 0 0-.669.767 2.256 2.256 0 0 0-.234 1.014v.58c0 .494.085.913.256 1.257.173.34.413.6.72.78.306.176.663.264 1.069.264a2.2 2.2 0 0 0 .716-.11 1.53 1.53 0 0 0 .558-.342 1.55 1.55 0 0 0 .363-.57l.971.272c-.102.33-.274.62-.515.87a2.52 2.52 0 0 1-.895.579 3.321 3.321 0 0 1-1.198.204zm6.899 0c-.613 0-1.142-.144-1.585-.434a2.837 2.837 0 0 1-1.023-1.198c-.238-.508-.357-1.09-.357-1.743 0-.664.122-1.251.366-1.76.247-.51.591-.91 1.031-1.197.443-.29.96-.435 1.551-.435.461 0 .875.086 1.245.256.369.17.672.41.907.716.236.307.382.665.439 1.074h-1.005a1.564 1.564 0 0 0-.512-.793c-.261-.233-.613-.35-1.057-.35-.392 0-.735.103-1.031.308a2.004 2.004 0 0 0-.686.856c-.162.367-.243.797-.243 1.291 0 .506.08.946.239 1.321.162.375.389.666.682.874.295.207.642.311 1.039.311.262 0 .499-.046.712-.136a1.461 1.461 0 0 0 .857-1.006h1.005a2.325 2.325 0 0 1-1.304 1.777c-.363.179-.787.268-1.27.268z"/><mask id="b" width="343" height="188" x="16" y="43" maskUnits="userSpaceOnUse" style="mask-type:alpha"><path fill="url(#a)" d="M0 0h343v188H0z" transform="translate(16 43)"/></mask><g mask="url(#b)"><path fill="#7F56D9" d="M349.2 60.667c4.9 0 4.9-14.933 9.8-14.933V231H16v-89.805c5.308 0 4.9 5.493 9.8 5.493s4.9-15.599 9.8-15.599 4.083 4.799 9.8 4.799c5.717 0 4.083 8.986 9.8 8.986 5.717 0 4.492-3.413 9.8-3.413 5.308 0 4.287-16.265 9.8-16.265 5.513 0 4.083 5.306 9.8 5.306 5.717 0 4.696 7.306 9.8 7.306 5.104 0 4.287-24.265 9.8-24.265 5.512 0 4.9 8.4 9.8 8.4s4.083-11.76 9.8-11.76c5.717 0 4.492 7.52 9.8 7.52 5.308 0 4.492-30.745 9.8-30.745 5.308 0 4.288 8.56 9.8 8.56 5.512 0 4.083 5.653 9.8 5.653 5.717 0 4.287-14.666 9.8-14.666 5.512 0 4.083 7.2 9.8 7.2 5.717 0 4.696-11.866 9.8-11.866 5.104 0 4.492-19.84 9.8-19.84 5.308 0 4.492 33.199 9.8 33.199 5.308 0 4.696-23.252 9.8-23.252 5.104 0 4.083 10.186 9.8 10.186 5.717 0 4.492 9.146 9.8 9.146 5.308 0 4.696-15.146 9.8-15.146 5.104 0 4.696 14.4 9.8 14.4 5.104 0 4.492-6.4 9.8-6.4 5.308 0 4.492-13.2 9.8-13.2 5.308 0 4.492 5.28 9.8 5.28 5.308 0 4.9-19.278 9.8-19.278s4.083 26.425 9.8 26.425c5.717 0 4.287-17.946 9.8-17.946 5.512 0 4.696 7.386 9.8 7.386 5.104 0 4.696-18.399 9.8-18.399 5.104 0 4.9 6.267 9.8 6.267z" opacity=".1"/></g><path stroke="#7F56D9" stroke-linecap="round" stroke-linejoin="round" stroke-width="2" d="M359 45.734c-4.9 0-4.9 14.933-9.8 14.933s-4.696-6.267-9.8-6.267c-5.104 0-4.696 18.4-9.8 18.4-5.104 0-4.288-7.387-9.8-7.387-5.513 0-4.083 17.946-9.8 17.946-5.717 0-4.9-26.425-9.8-26.425s-4.492 19.278-9.8 19.278c-5.308 0-4.492-5.28-9.8-5.28-5.308 0-4.492 13.2-9.8 13.2-5.308 0-4.696 6.4-9.8 6.4-5.104 0-4.696-14.4-9.8-14.4-5.104 0-4.492 15.146-9.8 15.146-5.308 0-4.083-9.146-9.8-9.146-5.717 0-4.696-10.186-9.8-10.186-5.104 0-4.492 23.252-9.8 23.252-5.308 0-4.492-33.198-9.8-33.198-5.308 0-4.696 19.839-9.8 19.839-5.104 0-4.083 11.865-9.8 11.865-5.717 0-4.288-7.2-9.8-7.2-5.513 0-4.083 14.667-9.8 14.667-5.717 0-4.288-5.653-9.8-5.653-5.513 0-4.492-8.56-9.8-8.56-5.308 0-4.492 30.745-9.8 30.745-5.308 0-4.083-7.52-9.8-7.52-5.717 0-4.9 11.76-9.8 11.76s-4.288-8.4-9.8-8.4c-5.513 0-4.696 24.265-9.8 24.265-5.104 0-4.083-7.306-9.8-7.306-5.717 0-4.287-5.306-9.8-5.306-5.513 0-4.492 16.265-9.8 16.265-5.308 0-4.083 3.413-9.8 3.413-5.717 0-4.083-8.986-9.8-8.986-5.717 0-4.9-4.799-9.8-4.799s-4.9 15.599-9.8 15.599-4.492-5.493-9.8-5.493"/><path stroke="#B692F6" stroke-linecap="round" stroke-linejoin="round" stroke-width="2" d="M359 122.281c-4.9 0-4.9 6.64-9.8 6.64s-4.696.878-9.8.878c-5.104 0-4.696 4.517-9.8 4.517-5.104 0-4.288-3.284-9.8-3.284-5.513 0-4.083 7.98-9.8 7.98-5.717 0-4.9-6.254-9.8-6.254s-4.492 3.076-9.8 3.076c-5.308 0-4.492-2.348-9.8-2.348-5.308 0-4.492 5.87-9.8 5.87-5.308 0-4.696 2.845-9.8 2.845-5.104 0-4.696-6.402-9.8-6.402-5.104 0-4.492-7.924-9.8-7.924-5.308 0-4.083 10.591-9.8 10.591-5.717 0-4.696-4.529-9.8-4.529-5.104 0-5.957 2.444-9.8 3.01-3.822.564-4.492-.104-9.8-.104-5.308 0-4.696 1.493-9.8 1.493-5.104 0-4.083 5.276-9.8 5.276-5.717 0-4.288-3.201-9.8-3.201-5.513 0-4.083 6.521-9.8 6.521-5.717 0-4.288-2.513-9.8-2.513-5.513 0-4.492-3.806-9.8-3.806-5.308 0-4.492 6.342-9.8 6.342-5.308 0-4.083 3.985-9.8 3.985-5.717 0-6.156 1.231-9.8 5.229-4.245 4.658-4.288 18.253-9.8 18.253-5.513 0-5.809-8.36-9.8-11.198-3.743-2.662-4.083-3.249-9.8-3.249-5.717 0-4.287-2.359-9.8-2.359-5.513 0-4.492 7.233-9.8 7.233-5.308 0-4.083 1.517-9.8 1.517-5.717 0-4.083-3.995-9.8-3.995-5.717 0-4.9-2.135-9.8-2.135s-4.9 6.937-9.8 6.937-4.492-2.443-9.8-2.443"/><path stroke="#3A6EF2" stroke-linecap="round" stroke-linejoin="round" stroke-width="2" d="M359 165.547c-4.9 0-4.9 6.564-9.8 6.564s-4.696-2.755-9.8-2.755c-5.104 0-4.696 8.088-9.8 8.088-5.104 0-4.288-3.247-9.8-3.247-5.513 0-4.083 7.888-9.8 7.888-5.717 0-4.9-11.615-9.8-11.615s-4.492 8.474-9.8 8.474c-5.308 0-4.492-2.321-9.8-2.321-5.308 0-4.492 5.802-9.8 5.802-5.308 0-4.696 2.813-9.8 2.813-5.104 0-4.696-6.329-9.8-6.329-5.104 0-4.492 6.657-9.8 6.657-5.308 0-4.083-4.02-9.8-4.02-5.717 0-4.696-4.478-9.8-4.478-5.104 0-4.492 10.221-9.8 10.221-5.308 0-4.492-14.592-9.8-14.592-5.308 0-4.696 8.72-9.8 8.72-5.104 0-4.083 5.216-9.8 5.216-5.717 0-4.288-3.165-9.8-3.165-5.513 0-4.083 6.446-9.8 6.446-5.717 0-4.288-2.484-9.8-2.484-5.513 0-4.492-3.763-9.8-3.763-5.308 0-4.492 13.514-9.8 13.514-5.308 0-4.083-3.305-9.8-3.305-5.717 0-4.9 5.169-9.8 5.169s-4.288-3.692-9.8-3.692c-5.513 0-4.696 10.666-9.8 10.666-5.104 0-4.083-3.212-9.8-3.212-5.717 0-4.287-2.332-9.8-2.332-5.513 0-4.492 7.15-9.8 7.15-5.308 0-4.083 1.5-9.8 1.5-5.717 0-4.083-3.95-9.8-3.95-5.717 0-4.9-2.11-9.8-2.11s-4.9 6.857-9.8 6.857-4.492-2.415-9.8-2.415"/><defs><linearGradient id="a" x1="171.5" x2="171.5" y1="0" y2="188" gradientUnits="userSpaceOnUse"><stop/><stop offset="1" stop-opacity="0"/></linearGradient></defs></svg>