<?xml version="1.0" standalone="no"?>
<!DOCTYPE svg PUBLIC "-//W3C//DTD SVG 20010904//EN"
 "http://www.w3.org/TR/2001/REC-SVG-20010904/DTD/svg10.dtd">
<svg version="1.0" xmlns="http://www.w3.org/2000/svg"
 width="500.000000pt" height="500.000000pt" viewBox="0 0 500.000000 500.000000"
 preserveAspectRatio="xMidYMid meet">

<g transform="translate(0.000000,500.000000) scale(0.100000,-0.100000)"
fill="#000000" stroke="none">
<path d="M2287 4980 c-347 -34 -632 -115 -928 -266 -230 -117 -414 -249 -603
-433 -745 -727 -960 -1808 -550 -2768 118 -275 283 -521 503 -747 206 -210
401 -354 659 -485 173 -88 284 -131 451 -177 334 -91 638 -112 993 -68 794 98
1509 599 1884 1318 292 563 358 1194 189 1812 -234 853 -917 1522 -1780 1743
-82 22 -200 46 -262 55 -135 19 -434 28 -556 16z m598 -129 c329 -57 654 -186
926 -370 74 -50 150 -104 169 -120 l35 -30 -1525 0 -1525 0 40 34 c80 69 273
191 420 265 219 110 468 191 695 224 163 24 161 24 410 21 182 -2 262 -8 355
-24z m1346 -727 c100 -106 249 -296 249 -318 0 -3 -97 -6 -215 -6 l-215 0 0
252 0 251 58 -55 c31 -30 87 -86 123 -124z m-3361 -1624 c0 -1721 0 -1741 -19
-1730 -28 15 -189 196 -270 304 -225 299 -374 646 -442 1031 -27 152 -37 501
-20 656 51 445 235 892 505 1224 66 82 227 255 237 255 5 0 9 -715 9 -1740z
m2650 505 l0 -795 -530 0 -530 0 0 50 c0 43 3 50 20 50 17 0 20 7 20 45 0 41
2 45 25 45 24 0 25 2 25 70 0 68 1 70 25 70 20 0 25 5 25 25 0 18 5 25 20 25
13 0 20 7 20 20 0 17 7 20 45 20 41 0 45 2 45 25 0 25 0 25 95 25 88 0 95 2
95 20 0 17 -8 19 -67 22 -62 3 -68 5 -71 26 -3 20 -8 22 -73 22 -67 0 -69 1
-69 25 0 23 -4 25 -45 25 l-45 0 0 45 c0 41 -2 45 -25 45 -25 0 -25 0 -25 95
0 88 -1 95 -20 95 -17 0 -20 7 -20 45 0 41 -2 45 -25 45 -24 0 -25 -2 -25 -70
0 -63 -2 -70 -20 -70 -18 0 -20 -7 -20 -70 0 -68 -1 -70 -25 -70 -23 0 -25 -4
-25 -45 l0 -45 -45 0 c-41 0 -45 -2 -45 -25 0 -25 -1 -25 -80 -25 -79 0 -80 0
-80 -25 0 -24 -3 -25 -60 -25 -53 0 -60 -2 -60 -20 0 -19 7 -20 95 -20 95 0
95 0 95 -25 0 -24 2 -25 65 -25 58 0 65 -2 65 -20 0 -15 7 -20 25 -20 23 0 25
-3 25 -50 0 -47 2 -50 25 -50 24 0 25 -2 25 -70 0 -63 2 -70 20 -70 18 0 20
-7 20 -70 l0 -70 -245 0 -245 0 0 795 0 795 800 0 800 0 0 -795z m1162 427
c185 -432 237 -944 142 -1410 -47 -230 -134 -467 -246 -670 -42 -75 -55 -92
-75 -92 -21 0 -23 4 -23 55 l0 55 -55 0 -55 0 0 55 0 55 55 0 55 0 0 55 0 55
50 0 50 0 0 50 0 50 -105 0 -105 0 0 -55 0 -55 -50 0 -50 0 0 -50 0 -50 -55 0
-55 0 0 50 0 50 -55 0 -55 0 0 315 0 315 265 0 265 0 0 718 1 717 26 -50 c14
-27 48 -101 75 -163z m-842 -1797 l0 -45 50 0 50 0 0 -55 0 -55 55 0 55 0 0
-55 0 -55 -55 0 -55 0 0 -55 0 -55 -50 0 -50 0 0 -50 0 -50 105 0 105 0 0 55
0 55 55 0 55 0 0 50 0 50 55 0 55 0 0 -50 0 -50 50 0 50 0 0 -55 0 -55 46 0
46 0 -27 -37 c-189 -255 -399 -457 -640 -615 -309 -204 -689 -339 -1065 -379
-156 -17 -486 -6 -635 20 -341 61 -648 182 -925 366 -63 42 -122 83 -130 91
-12 12 48 14 433 14 l447 0 0 530 0 530 960 0 960 0 0 -45z"/>
<path d="M3110 3735 c0 -48 -2 -55 -20 -55 -18 0 -20 -7 -20 -55 0 -48 -2 -55
-20 -55 -16 0 -20 -7 -20 -35 0 -33 -2 -35 -35 -35 -28 0 -35 -4 -35 -20 0
-18 -7 -20 -60 -20 -47 0 -60 -3 -60 -15 0 -11 -12 -15 -50 -15 -43 0 -50 -3
-50 -20 0 -18 7 -20 80 -20 64 0 80 -3 80 -15 0 -11 12 -15 46 -15 37 0 47 -4
51 -20 3 -11 12 -20 19 -20 9 0 14 -12 14 -35 0 -28 4 -35 20 -35 18 0 20 -7
20 -54 0 -45 3 -54 20 -59 17 -4 20 -14 20 -56 0 -39 4 -51 15 -51 10 0 15 11
15 35 0 24 5 35 15 35 10 0 15 11 15 35 0 28 4 35 20 35 18 0 20 7 20 54 0 45
3 54 20 59 11 3 20 12 20 21 0 9 6 16 14 16 7 0 16 9 19 20 4 15 14 20 36 20
21 0 31 5 31 15 0 12 15 15 75 15 68 0 75 2 75 20 0 18 -7 20 -55 20 -42 0
-55 3 -55 15 0 12 -13 15 -55 15 -48 0 -55 2 -55 20 0 16 -7 20 -35 20 -33 0
-35 2 -35 34 0 25 -5 35 -20 39 -18 5 -20 14 -20 76 0 56 -3 71 -15 71 -10 0
-15 11 -15 35 0 24 -5 35 -15 35 -12 0 -15 -13 -15 -55z"/>
<path d="M2390 3525 l0 -45 45 0 45 0 0 45 0 45 -45 0 -45 0 0 -45z"/>
<path d="M3250 2765 l0 -45 45 0 45 0 0 45 0 45 -45 0 -45 0 0 -45z"/>
</g>
</svg>
